<svg width="24" height="24" viewBox="0 0 24 24" fill="none" xmlns="http://www.w3.org/2000/svg">
<path d="M4.2999 20.8499C3.41657 20.8499 2.67074 20.5457 2.0624 19.9374C1.45407 19.3291 1.1499 18.5832 1.1499 17.6999V6.2999C1.1499 5.41657 1.45407 4.67074 2.0624 4.0624C2.67074 3.45407 3.41657 3.1499 4.2999 3.1499H19.6999C20.5832 3.1499 21.3291 3.45407 21.9374 4.0624C22.5457 4.67074 22.8499 5.41657 22.8499 6.2999V17.6999C22.8499 18.5832 22.5457 19.3291 21.9374 19.9374C21.3291 20.5457 20.5832 20.8499 19.6999 20.8499H4.2999ZM19.6999 9.0749L12.8499 13.5249C12.7197 13.6082 12.583 13.6707 12.4398 13.7124C12.2965 13.7541 12.1499 13.7749 11.9999 13.7749C11.8499 13.7749 11.7033 13.7541 11.5601 13.7124C11.4168 13.6707 11.2801 13.6082 11.1499 13.5249L4.2999 9.0749V17.6999H19.6999V9.0749ZM11.9999 11.2999L19.6999 6.2999H4.2999L11.9999 11.2999ZM4.2999 9.4249V7.43405V7.47063V6.2999V7.4749V7.4249V9.4249Z" fill="url(#paint0_linear_18_373)"/>
<defs>
<linearGradient id="paint0_linear_18_373" x1="11.9999" y1="3.1499" x2="11.9999" y2="20.8499" gradientUnits="userSpaceOnUse">
<stop stop-color="#E122DA"/>
<stop offset="1" stop-color="#B214CC"/>
</linearGradient>
</defs>
</svg>
