<svg width="24" height="24" viewBox="0 0 24 24" fill="none" xmlns="http://www.w3.org/2000/svg">
<g clip-path="url(#clip0_18_367)">
<path d="M11.9999 0.28003C9.14313 0.279181 6.37974 1.29755 4.20667 3.15202C2.03359 5.00648 0.593401 7.57538 0.145062 10.3968C-0.303276 13.2182 0.269652 16.107 1.76083 18.5437C3.252 20.9805 5.56359 22.8053 8.27993 23.69H8.55993C8.81537 23.7025 9.06587 23.6166 9.25993 23.45C9.37668 23.3483 9.4695 23.2221 9.53174 23.0803C9.59397 22.9386 9.62409 22.7848 9.61993 22.63V21.33C9.61189 21.2651 9.59093 21.2025 9.5583 21.1458C9.52567 21.0891 9.48202 21.0396 9.42993 21C9.37301 20.9545 9.30682 20.9219 9.236 20.9047C9.16517 20.8874 9.09143 20.8858 9.01993 20.9C6.32993 21.48 5.75993 19.8 5.72993 19.69C5.39167 18.7998 4.78768 18.0352 3.99993 17.5L3.84993 17.39C3.96801 17.333 4.09928 17.3088 4.22993 17.32C4.47916 17.3575 4.71468 17.458 4.91418 17.612C5.11369 17.766 5.27056 17.9684 5.36993 18.2C5.75678 18.8736 6.38981 19.3709 7.13584 19.5872C7.88187 19.8036 8.68273 19.7221 9.36993 19.36C9.44419 19.327 9.50986 19.2774 9.56188 19.215C9.6139 19.1526 9.65087 19.079 9.66993 19C9.71047 18.541 9.90829 18.11 10.2299 17.78C10.3041 17.7161 10.3578 17.6318 10.3845 17.5375C10.4112 17.4433 10.4096 17.3434 10.3799 17.25C10.3526 17.1566 10.2981 17.0733 10.2233 17.011C10.1485 16.9487 10.0568 16.91 9.95993 16.9C7.58993 16.63 5.15993 15.8 5.15993 11.71C5.14267 10.6815 5.52229 9.68593 6.21993 8.93003C6.28299 8.86098 6.32497 8.77532 6.34091 8.68318C6.35686 8.59104 6.34611 8.49626 6.30993 8.41003C6.03298 7.62996 6.03651 6.77777 6.31993 6.00003C7.24337 6.16505 8.11017 6.56061 8.83993 7.15003C8.90066 7.19155 8.97012 7.21855 9.04294 7.22895C9.11577 7.23936 9.19001 7.23288 9.25993 7.21003C10.1538 6.97165 11.0748 6.85063 11.9999 6.85003C12.9286 6.84562 13.8537 6.96672 14.7499 7.21003C14.8182 7.2328 14.8909 7.23923 14.9621 7.22881C15.0333 7.21839 15.101 7.19141 15.1599 7.15003C15.8888 6.55912 16.756 6.16337 17.6799 6.00003C17.9546 6.76959 17.9546 7.61047 17.6799 8.38003C17.6438 8.46696 17.634 8.56261 17.6517 8.65507C17.6695 8.74753 17.7141 8.83272 17.7799 8.90003C18.4668 9.64991 18.8422 10.6332 18.8299 11.65C18.8299 15.75 16.3999 16.57 14.0199 16.83C13.9231 16.84 13.8314 16.8787 13.7566 16.941C13.6818 17.0033 13.6272 17.0866 13.5999 17.18C13.5711 17.2719 13.57 17.3701 13.5966 17.4626C13.6233 17.5551 13.6766 17.6377 13.7499 17.7C13.9711 17.9309 14.1401 18.2067 14.2453 18.5087C14.3506 18.8106 14.3897 19.1317 14.3599 19.45V22.63C14.3577 22.7855 14.3897 22.9395 14.4536 23.0812C14.5176 23.2229 14.6119 23.3488 14.7299 23.45C14.8789 23.5635 15.0527 23.64 15.237 23.673C15.4213 23.706 15.6108 23.6947 15.7899 23.64C18.4751 22.7263 20.7499 20.8909 22.2105 18.4594C23.6712 16.028 24.2234 13.1578 23.7692 10.358C23.3149 7.55818 21.8836 5.00978 19.7291 3.1649C17.5746 1.32003 14.8363 0.297963 11.9999 0.28003Z" fill="url(#paint0_linear_18_367)"/>
</g>
<defs>
<linearGradient id="paint0_linear_18_367" x1="11.9602" y1="0.280029" x2="11.9602" y2="23.6915" gradientUnits="userSpaceOnUse">
<stop stop-color="#E122DA"/>
<stop offset="1" stop-color="#B214CC"/>
</linearGradient>
<clipPath id="clip0_18_367">
<rect width="24" height="24" fill="white"/>
</clipPath>
</defs>
</svg>
