<svg width="24" height="24" viewBox="0 0 24 24" fill="none" xmlns="http://www.w3.org/2000/svg">
<g clip-path="url(#clip0_18_364)">
<path fill-rule="evenodd" clip-rule="evenodd" d="M6.59326 3.65667C6.59326 4.41527 6.2919 5.14279 5.7555 5.6792C5.21909 6.21561 4.49156 6.51696 3.73297 6.51696C2.97437 6.51696 2.24685 6.21561 1.71044 5.6792C1.17403 5.14279 0.872683 4.41527 0.872683 3.65667C0.872683 2.89808 1.17403 2.17055 1.71044 1.63415C2.24685 1.09774 2.97437 0.796387 3.73297 0.796387C4.49156 0.796387 5.21909 1.09774 5.7555 1.63415C6.2919 2.17055 6.59326 2.89808 6.59326 3.65667ZM3.49725 8.79096C4.94754 8.79096 6.12354 9.96696 6.12354 11.4172V20.4172C6.1325 20.7677 6.07121 21.1163 5.9433 21.4427C5.81538 21.7691 5.62343 22.0665 5.37875 22.3175C5.13407 22.5685 4.84161 22.768 4.51863 22.9042C4.19564 23.0404 3.84865 23.1106 3.49811 23.1106C3.14758 23.1106 2.80059 23.0404 2.4776 22.9042C2.15461 22.768 1.86216 22.5685 1.61748 22.3175C1.3728 22.0665 1.18084 21.7691 1.05293 21.4427C0.925014 21.1163 0.863728 20.7677 0.872683 20.4172V11.4172C0.872683 9.96696 2.04697 8.79096 3.49725 8.79096ZM14.0367 15.9172C14.0367 15.4198 14.2343 14.9428 14.586 14.5911C14.9377 14.2394 15.4147 14.0418 15.9121 14.0418C16.4095 14.0418 16.8865 14.2394 17.2382 14.5911C17.59 14.9428 17.7875 15.4198 17.7875 15.9172V20.419C17.7786 20.7694 17.8399 21.118 17.9678 21.4444C18.0957 21.7708 18.2877 22.0682 18.5323 22.3192C18.777 22.5703 19.0695 22.7697 19.3925 22.906C19.7154 23.0422 20.0624 23.1123 20.413 23.1123C20.7635 23.1123 21.1105 23.0422 21.4335 22.906C21.7565 22.7697 22.0489 22.5703 22.2936 22.3192C22.5383 22.0682 22.7302 21.7708 22.8582 21.4444C22.9861 21.118 23.0474 20.7694 23.0384 20.419V15.9172C23.0384 14.0272 22.2876 12.2146 20.9512 10.8782C19.6147 9.54176 17.8021 8.79096 15.9121 8.79096C14.0221 8.79096 12.2095 9.54176 10.8731 10.8782C9.53663 12.2146 8.78583 14.0272 8.78583 15.9172V20.419C8.77687 20.7694 8.83816 21.118 8.96607 21.4444C9.09399 21.7708 9.28594 22.0682 9.53062 22.3192C9.7753 22.5703 10.0678 22.7697 10.3907 22.906C10.7137 23.0422 11.0607 23.1123 11.4113 23.1123C11.7618 23.1123 12.1088 23.0422 12.4318 22.906C12.7548 22.7697 13.0472 22.5703 13.2919 22.3192C13.5366 22.0682 13.7285 21.7708 13.8564 21.4444C13.9844 21.118 14.0456 20.7694 14.0367 20.419V15.9172Z" fill="url(#paint0_linear_18_364)"/>
</g>
<defs>
<linearGradient id="paint0_linear_18_364" x1="11.9555" y1="0.796387" x2="11.9555" y2="23.1123" gradientUnits="userSpaceOnUse">
<stop stop-color="#E122DA"/>
<stop offset="1" stop-color="#B214CC"/>
</linearGradient>
<clipPath id="clip0_18_364">
<rect width="24" height="24" fill="white"/>
</clipPath>
</defs>
</svg>
