<svg width="164" height="38" viewBox="0 0 164 38" fill="none" xmlns="http://www.w3.org/2000/svg">
<path d="M40.176 3.736L34.608 37H24.384L20.256 11.608L15.888 37H5.90401L0.432007 3.736H8.30401L11.616 31.048L16.224 3.736H24.48L28.8 31.048L32.688 3.736H40.176Z" fill="#141414"/>
<path d="M65.3719 23.752C65.3719 24.808 65.3239 25.72 65.2279 26.488H49.4359C49.6919 28.632 50.2999 30.136 51.2599 31C52.2199 31.864 53.5479 32.296 55.2439 32.296C56.2679 32.296 57.2599 32.12 58.2199 31.768C59.1799 31.384 60.2199 30.808 61.3399 30.04L64.4599 34.264C61.4839 36.632 58.1719 37.816 54.5239 37.816C50.3959 37.816 47.2279 36.6 45.0199 34.168C42.8119 31.736 41.7079 28.472 41.7079 24.376C41.7079 21.784 42.1719 19.464 43.0999 17.416C44.0279 15.336 45.3879 13.704 47.1799 12.52C48.9719 11.304 51.1159 10.696 53.6119 10.696C57.2919 10.696 60.1719 11.848 62.2519 14.152C64.3319 16.456 65.3719 19.656 65.3719 23.752ZM57.9319 21.592C57.8679 17.688 56.4919 15.736 53.8039 15.736C52.4919 15.736 51.4679 16.216 50.7319 17.176C50.0279 18.136 49.5959 19.72 49.4359 21.928H57.9319V21.592Z" fill="#141414"/>
<path d="M84.5603 10.696C86.7683 10.696 88.4963 11.368 89.7443 12.712C90.9923 14.056 91.6163 15.944 91.6163 18.376V37H84.0323V19.672C84.0323 18.392 83.8243 17.512 83.4083 17.032C83.0243 16.52 82.4323 16.264 81.6323 16.264C80.0963 16.264 78.6243 17.368 77.2163 19.576V37H69.6323V11.512H76.2563L76.7843 14.536C77.8723 13.256 79.0403 12.296 80.2883 11.656C81.5683 11.016 82.9923 10.696 84.5603 10.696Z" fill="#141414"/>
<path d="M120.183 1.38399V37H113.463L113.079 34.024C111.287 36.552 108.871 37.816 105.831 37.816C102.663 37.816 100.247 36.6 98.5834 34.168C96.9514 31.736 96.1354 28.408 96.1354 24.184C96.1354 21.592 96.5674 19.272 97.4314 17.224C98.2954 15.176 99.5114 13.576 101.079 12.424C102.679 11.272 104.503 10.696 106.551 10.696C108.983 10.696 110.999 11.496 112.599 13.096V0.567993L120.183 1.38399ZM108.183 32.248C109.943 32.248 111.415 31.288 112.599 29.368V18.376C111.991 17.64 111.367 17.096 110.727 16.744C110.119 16.392 109.415 16.216 108.615 16.216C107.207 16.216 106.087 16.872 105.255 18.184C104.423 19.496 104.007 21.512 104.007 24.232C104.007 27.208 104.359 29.288 105.063 30.472C105.799 31.656 106.839 32.248 108.183 32.248Z" fill="#141414"/>
<path d="M148.341 23.752C148.341 24.808 148.293 25.72 148.197 26.488H132.405C132.661 28.632 133.269 30.136 134.229 31C135.189 31.864 136.517 32.296 138.213 32.296C139.237 32.296 140.229 32.12 141.189 31.768C142.149 31.384 143.189 30.808 144.309 30.04L147.429 34.264C144.453 36.632 141.141 37.816 137.493 37.816C133.365 37.816 130.197 36.6 127.989 34.168C125.781 31.736 124.677 28.472 124.677 24.376C124.677 21.784 125.141 19.464 126.069 17.416C126.997 15.336 128.357 13.704 130.149 12.52C131.941 11.304 134.085 10.696 136.581 10.696C140.261 10.696 143.141 11.848 145.221 14.152C147.301 16.456 148.341 19.656 148.341 23.752ZM140.901 21.592C140.837 17.688 139.461 15.736 136.773 15.736C135.461 15.736 134.437 16.216 133.701 17.176C132.997 18.136 132.565 19.72 132.405 21.928H140.901V21.592Z" fill="#141414"/>
<path d="M159.369 37.816C157.161 37.816 155.433 37.192 154.185 35.944C152.969 34.664 152.361 32.856 152.361 30.52V1.38399L159.945 0.567993V30.232C159.945 31.288 160.377 31.816 161.241 31.816C161.689 31.816 162.105 31.736 162.489 31.576L163.977 36.952C162.601 37.528 161.065 37.816 159.369 37.816Z" fill="#141414"/>
</svg>
